HIERARCHY
ROOT hip
{
  OFFSET 0 0 0
  CHANNELS 6 Xposition Yposition Zposition Zrotation Yrotation Xrotation
  JOINT abdomen
  {
    OFFSET 0 20.6881 -0.73152
    CHANNELS 3 Zrotation Xrotation Yrotation
    JOINT chest
    {
      OFFSET 0 11.7043 -0.48768
      CHANNELS 3 Zrotation Xrotation Yrotation
      JOINT neck
      {
        OFFSET 0 22.1894 -2.19456
        CHANNELS 3 Zrotation Xrotation Yrotation
        JOINT head
        {
          OFFSET -0.24384 7.07133 1.2192
          CHANNELS 3 Zrotation Xrotation Yrotation
          JOINT leftEye
          {
            OFFSET 4.14528 8.04674 8.04672
            CHANNELS 3 Zrotation Xrotation Yrotation
            End Site
            {
              OFFSET 1 0 0
            }
          }
          JOINT rightEye
          {
            OFFSET -3.6576 8.04674 8.04672
            CHANNELS 3 Zrotation Xrotation Yrotation
            End Site
            {
              OFFSET 1 0 0
            }
          }
        }
      }
      JOINT rCollar
      {
        OFFSET -2.68224 19.2634 -4.8768
        CHANNELS 3 Zrotation Xrotation Yrotation
        JOINT rShldr
        {
          OFFSET -8.77824 -1.95073 1.46304
          CHANNELS 3 Zrotation Xrotation Yrotation
          JOINT rForeArm
          {
            OFFSET -28.1742 -1.7115 0.48768
            CHANNELS 3 Zrotation Xrotation Yrotation
            JOINT rHand
            {
              OFFSET -22.5879 0.773209 7.07136
              CHANNELS 3 Zrotation Xrotation Yrotation
              JOINT rThumb1
              {
                OFFSET -1.2192 -0.487915 3.41376
                CHANNELS 3 Zrotation Xrotation Yrotation
                JOINT rThumb2
                {
                  OFFSET -3.37035 -0.52449 3.41376
                  CHANNELS 3 Zrotation Xrotation Yrotation
                  End Site
                  {
                    OFFSET -1.78271 -1.18214 1.43049
                  }
                }
              }
              JOINT rIndex1
              {
                OFFSET -7.75947 0.938293 5.60832
                CHANNELS 3 Zrotation Xrotation Yrotation
                JOINT rIndex2
                {
                  OFFSET -2.54057 -0.884171 1.56538
                  CHANNELS 3 Zrotation Xrotation Yrotation
                  End Site
                  {
                    OFFSET -1.62519 -0.234802 1.16502
                  }
                }
              }
              JOINT rMid1
              {
                OFFSET -8.24714 1.18213 3.41376
                CHANNELS 3 Zrotation Xrotation Yrotation
                JOINT rMid2
                {
                  OFFSET -3.10165 -0.590103 1.0647
                  CHANNELS 3 Zrotation Xrotation Yrotation
                  End Site
                  {
                    OFFSET -2.48547 -0.328903 0.83742
                  }
                }
              }
              JOINT rRing1
              {
                OFFSET -8.82822 0.546677 1.51678
                CHANNELS 3 Zrotation Xrotation Yrotation
                JOINT rRing2
                {
                  OFFSET -2.60934 -0.819778 -0.0198488
                  CHANNELS 3 Zrotation Xrotation Yrotation
                  End Site
                  {
                    OFFSET -2.33842 -0.294052 0.168128
                  }
                }
              }
              JOINT rPinky1
              {
                OFFSET -8.27202 -0.0477905 -0.4584
                CHANNELS 3 Zrotation Xrotation Yrotation
                JOINT rPinky2
                {
                  OFFSET -1.82734 -0.647385 -0.700984
                  CHANNELS 3 Zrotation Xrotation Yrotation
                  End Site
                  {
                    OFFSET -1.69225 -0.51767 -0.607171
                  }
                }
              }
            }
          }
        }
      }
      JOINT lCollar
      {
        OFFSET 2.68224 19.2634 -4.8768
        CHANNELS 3 Zrotation Xrotation Yrotation
        JOINT lShldr
        {
          OFFSET 8.77824 -1.95073 1.46304
          CHANNELS 3 Zrotation Xrotation Yrotation
          JOINT lForeArm
          {
            OFFSET 28.1742 -1.7115 0.48768
            CHANNELS 3 Zrotation Xrotation Yrotation
            JOINT lHand
            {
              OFFSET 22.5879 0.773209 7.07136
              CHANNELS 3 Zrotation Xrotation Yrotation
              JOINT lThumb1
              {
                OFFSET 1.2192 -0.487915 3.41376
                CHANNELS 3 Zrotation Xrotation Yrotation
                JOINT lThumb2
                {
                  OFFSET 3.37035 -0.52449 3.41376
                  CHANNELS 3 Zrotation Xrotation Yrotation
                  End Site
                  {
                    OFFSET 1.78271 -1.18214 1.43049
                  }
                }
              }
              JOINT lIndex1
              {
                OFFSET 7.75947 0.938293 5.60832
                CHANNELS 3 Zrotation Xrotation Yrotation
                JOINT lIndex2
                {
                  OFFSET 2.54057 -0.884171 1.56538
                  CHANNELS 3 Zrotation Xrotation Yrotation
                  End Site
                  {
                    OFFSET 1.62519 -0.234802 1.16502
                  }
                }
              }
              JOINT lMid1
              {
                OFFSET 8.24714 1.18213 3.41376
                CHANNELS 3 Zrotation Xrotation Yrotation
                JOINT lMid2
                {
                  OFFSET 3.10165 -0.590103 1.0647
                  CHANNELS 3 Zrotation Xrotation Yrotation
                  End Site
                  {
                    OFFSET 2.48547 -0.328903 0.83742
                  }
                }
              }
              JOINT lRing1
              {
                OFFSET 8.82822 0.546677 1.51678
                CHANNELS 3 Zrotation Xrotation Yrotation
                JOINT lRing2
                {
                  OFFSET 2.60934 -0.819778 -0.0198488
                  CHANNELS 3 Zrotation Xrotation Yrotation
                  End Site
                  {
                    OFFSET 2.33842 -0.294052 0.168128
                  }
                }
              }
              JOINT lPinky1
              {
                OFFSET 8.27202 -0.0477905 -0.4584
                CHANNELS 3 Zrotation Xrotation Yrotation
                JOINT lPinky2
                {
                  OFFSET 1.82734 -0.647385 -0.700984
                  CHANNELS 3 Zrotation Xrotation Yrotation
                  End Site
                  {
                    OFFSET 1.69225 -0.51767 -0.607171
                  }
                }
              }
            }
          }
        }
      }
    }
  }
  JOINT rButtock
  {
    OFFSET -8.77824 4.35084 1.2192
    CHANNELS 3 Zrotation Xrotation Yrotation
    JOINT rThigh
    {
      OFFSET 0 -1.70687 -2.19456
      CHANNELS 3 Zrotation Xrotation Yrotation
      JOINT rShin
      {
        OFFSET 0 -36.8199 0.73152
        CHANNELS 3 Zrotation Xrotation Yrotation
        JOINT rFoot
        {
          OFFSET 0.73152 -45.1104 -5.12064
          CHANNELS 3 Zrotation Xrotation Yrotation
          End Site
          {
            OFFSET -1.1221 -3.69964 12.103
          }
        }
      }
    }
  }
  JOINT lButtock
  {
    OFFSET 8.77824 4.35084 1.2192
    CHANNELS 3 Zrotation Xrotation Yrotation
    JOINT lThigh
    {
      OFFSET 0 -1.70687 -2.19456
      CHANNELS 3 Zrotation Xrotation Yrotation
      JOINT lShin
      {
        OFFSET 0 -36.8199 0.73152
        CHANNELS 3 Zrotation Xrotation Yrotation
        JOINT lFoot
        {
          OFFSET -0.73152 -45.1104 -5.12064
          CHANNELS 3 Zrotation Xrotation Yrotation
          End Site
          {
            OFFSET 1.1221 -3.69964 12.103
          }
        }
      }
    }
  }
}
MOTION
Frames:	8
Frame Time:	0.00833333
76.4439 81.8802 51.8535 -177.01 -54.0005 -174.73 -10.2706 -5.49323 -4.19048 0.225126 6.54693 -1.1827 -5.31984 16.0659 0.739084 12.1116 -34.1396 5.13273 -0.0 0.0 0.0 -0.0 0.0 0.0 6.93744e-14 -5.13327e-14 -5.05944e-13 82.6087 -3.60631 -5.89102 -11.5587 -5.14393 20.7592 -1.85949 35.6335 5.78179 2.50528e-09 1.48253e-10 -2.7463e-10 4.30773e-09 2.85043e-10 -5.43503e-10 2.50528e-09 1.48247e-10 -2.74636e-10 7.73091 5.47488 0.417314 2.50528e-09 1.48254e-10 -2.74634e-10 2.90554 0.965183 0.102902 2.50529e-09 1.48254e-10 -2.74629e-10 10.2786 0.731801 0.0259123 2.50527e-09 1.48254e-10 -2.74618e-10 2.22167 -0.733487 -0.20892 6.92283e-14 -5.13548e-14 -5.06157e-13 -77.45 13.8278 -8.02884 9.0238 -3.56887 -15.9831 1.23519 29.8576 -4.62787 1.96714e-09 1.97725e-09 9.9222e-10 3.41012e-09 3.40967e-09 1.66501e-09 1.96714e-09 1.97725e-09 9.92225e-10 -7.73091 5.47488 -0.417314 1.96714e-09 1.97725e-09 9.92214e-10 -2.90554 0.965183 -0.102902 1.96713e-09 1.97725e-09 9.92221e-10 -10.2786 0.731801 -0.0259123 1.96714e-09 1.97725e-09 9.92211e-10 -2.22167 -0.733487 0.20892 -2.03217e-16 0.0 -3.88251e-19 -5.06669 -38.8751 2.33918 -0.530338 47.7884 1.08499 -1.83867 -9.27552 -4.71806 2.03217e-16 0.0 3.88251e-19 -6.40571 -22.3803 6.09044 -0.182065 30.7922 -0.816416 -0.501226 -4.88924 -18.686
75.6715 82.0202 51.1631 -176.684 -55.2476 -174.87 -10.1568 -5.55644 -4.60719 0.760597 6.60527 -1.3091 -5.43334 15.9735 0.812134 12.011 -34.1232 5.26212 -0.0 0.0 0.0 -0.0 0.0 0.0 1.08465e-14 -8.20935e-14 -6.2829e-13 82.0928 -4.03425 -5.95151 -11.4967 -5.10193 20.6399 -1.89308 35.9017 5.83932 2.11577e-09 -1.54527e-09 1.60454e-09 3.68772e-09 -2.66429e-09 2.7074e-09 2.11577e-09 -1.54529e-09 1.60453e-09 7.73091 5.47488 0.417314 2.11577e-09 -1.54527e-09 1.60453e-09 2.90554 0.965183 0.102902 2.11578e-09 -1.54527e-09 1.60454e-09 10.2786 0.731801 0.0259123 2.11577e-09 -1.54527e-09 1.60455e-09 2.22167 -0.733487 -0.20892 1.07535e-14 -8.21135e-14 -6.28517e-13 -77.8257 14.4826 -8.34911 9.1635 -3.64797 -16.2424 1.20127 29.487 -4.5588 3.85231e-09 2.30978e-09 1.04347e-09 6.6646e-09 3.98965e-09 1.71174e-09 3.85231e-09 2.30978e-09 1.04347e-09 -7.73091 5.47488 -0.417314 3.85231e-09 2.30977e-09 1.04346e-09 -2.90554 0.965183 -0.102902 3.8523e-09 2.30978e-09 1.04347e-09 -10.2786 0.731801 -0.0259123 3.85231e-09 2.30978e-09 1.04345e-09 -2.22167 -0.733487 0.20892 -2.03217e-16 0.0 -3.88251e-19 -4.74026 -38.9764 3.46516 -0.430528 44.1725 1.02451 -1.45255 -9.14758 -3.35245 2.03217e-16 0.0 3.88251e-19 -6.31581 -21.376 5.68919 -0.193259 30.0226 -0.896878 -0.480738 -4.8153 -19.4729
74.8375 82.1621 50.549 -176.746 -56.3668 -174.676 -10.0496 -5.64637 -5.00234 1.30499 6.67145 -1.431 -5.54028 15.8852 0.891206 11.8935 -34.0917 5.39654 -0.0 0.0 0.0 -0.0 0.0 0.0 -5.14097e-14 -1.07617e-13 -6.94078e-13 81.5666 -4.48988 -5.97466 -11.4149 -5.04679 20.4831 -1.93361 36.2195 5.90807 1.51839e-09 -3.18012e-09 3.42663e-09 2.70829e-09 -5.51303e-09 5.8658e-09 1.51839e-09 -3.18014e-09 3.42661e-09 7.73091 5.47488 0.417314 1.51839e-09 -3.18012e-09 3.42662e-09 2.90554 0.965183 0.102902 1.5184e-09 -3.18012e-09 3.42663e-09 10.2786 0.731801 0.0259123 1.51839e-09 -3.18012e-09 3.42664e-09 2.22167 -0.733487 -0.20892 -5.14507e-14 -1.07634e-13 -6.94318e-13 -78.2384 15.0648 -8.57971 9.31504 -3.73494 -16.5238 1.16725 29.1158 -4.4898 5.47411e-09 2.43295e-09 9.96729e-10 9.46309e-09 4.20749e-09 1.59529e-09 5.4741e-09 2.43294e-09 9.96732e-10 -7.73091 5.47488 -0.417314 5.47411e-09 2.43294e-09 9.96725e-10 -2.90554 0.965183 -0.102902 5.4741e-09 2.43294e-09 9.96726e-10 -10.2786 0.731801 -0.0259123 5.47411e-09 2.43294e-09 9.96714e-10 -2.22167 -0.733487 0.20892 -2.03217e-16 0.0 -3.88251e-19 -4.46048 -38.9581 4.45637 -0.347705 40.5036 0.974371 -0.947885 -8.77134 -1.56192 2.03217e-16 0.0 3.88251e-19 -6.22286 -20.3026 5.28416 -0.201844 29.1347 -0.968226 -0.433638 -4.71573 -20.1535
74.0252 82.2966 49.9267 -176.542 -57.5021 -174.712 -9.87993 -5.70785 -5.38428 1.7276 6.69716 -1.54689 -5.62002 15.8478 0.973298 11.8352 -34.1262 5.55573 -0.0 0.0 0.0 -0.0 0.0 0.0 -9.71468e-14 -1.1025e-13 -6.16978e-13 81.148 -4.85695 -5.99836 -11.3397 -4.99628 20.3391 -1.97195 36.5154 5.97262 7.42431e-10 -4.03743e-09 4.41196e-09 1.3989e-09 -7.01047e-09 7.58673e-09 7.4243e-10 -4.03745e-09 4.41195e-09 7.73091 5.47488 0.417314 7.42429e-10 -4.03743e-09 4.41196e-09 2.90554 0.965183 0.102902 7.42441e-10 -4.03743e-09 4.41197e-09 10.2786 0.731801 0.0259123 7.42424e-10 -4.03743e-09 4.41198e-09 2.22167 -0.733487 -0.20892 -9.71716e-14 -1.10265e-13 -6.17226e-13 -78.554 15.7213 -8.71565 9.48314 -3.83312 -16.8358 1.12463 28.645 -4.40284 5.94665e-09 2.10882e-09 7.35742e-10 1.02744e-08 3.64957e-09 1.13457e-09 5.94665e-09 2.10881e-09 7.35745e-10 -7.73091 5.47488 -0.417314 5.94665e-09 2.10881e-09 7.35739e-10 -2.90554 0.965183 -0.102902 5.94664e-09 2.10881e-09 7.35739e-10 -10.2786 0.731801 -0.0259123 5.94665e-09 2.10882e-09 7.35726e-10 -2.22167 -0.733487 0.20892 -2.03217e-16 0.0 -3.88251e-19 -4.18052 -38.879 5.23409 -0.282821 37.08 0.937726 -0.379118 -8.24991 0.589132 2.03217e-16 0.0 3.88251e-19 -6.11016 -19.2103 4.80576 -0.202963 28.2292 -1.03014 -0.35245 -4.56545 -20.6736
73.2386 82.4492 49.2686 -175.891 -58.5231 -175.221 -9.59287 -5.72705 -5.761 1.98024 6.65135 -1.65663 -5.64552 15.906 1.07352 11.8524 -34.2793 5.77554 -0.0 0.0 0.0 -0.0 0.0 0.0 -1.25163e-13 -7.38759e-14 -2.67795e-13 80.8765 -5.09064 -6.01809 -11.2683 -4.94872 20.2023 -2.01295 36.8289 6.0414 -5.45582e-10 -3.74007e-09 4.16878e-09 -8.25105e-10 -6.50298e-09 7.20434e-09 -5.45581e-10 -3.74009e-09 4.16877e-09 7.73091 5.47488 0.417314 -5.45583e-10 -3.74007e-09 4.16878e-09 2.90554 0.965183 0.102902 -5.45572e-10 -3.74007e-09 4.16878e-09 10.2786 0.731801 0.0259123 -5.45589e-10 -3.74007e-09 4.1688e-09 2.22167 -0.733487 -0.20892 -1.25236e-13 -7.38862e-14 -2.68049e-13 -78.7407 16.5503 -8.69762 9.69935 -3.96205 -17.2368 1.06428 27.9598 -4.27766 4.52545e-09 9.1704e-10 1.91272e-11 7.80964e-09 1.58757e-09 -7.05447e-11 4.52545e-09 9.17036e-10 1.91306e-11 -7.73091 5.47488 -0.417314 4.52545e-09 9.17036e-10 1.91249e-11 -2.90554 0.965183 -0.102902 4.52544e-09 9.17037e-10 1.91244e-11 -10.2786 0.731801 -0.0259123 4.52545e-09 9.1704e-10 1.91126e-11 -2.22167 -0.733487 0.20892 -2.03217e-16 0.0 -3.88251e-19 -3.85195 -38.7461 5.85013 -0.233604 33.8099 0.909197 0.296938 -7.58192 3.38809 2.03217e-16 0.0 3.88251e-19 -5.9318 -18.0831 4.25576 -0.191559 27.2572 -1.08295 -0.227112 -4.35268 -20.99
72.4338 82.5989 48.6105 -175.153 -59.6815 -175.784 -9.23702 -5.73319 -6.12607 2.13667 6.56585 -1.7609 -5.63551 16.0239 1.18832 11.9076 -34.4971 6.03634 -0.0 0.0 0.0 -0.0 0.0 0.0 -1.44857e-13 -1.17126e-14 2.72037e-13 80.6869 -5.25763 -6.01832 -11.1899 -4.89674 20.0524 -2.05951 37.1785 6.11883 -2.24751e-09 -2.73323e-09 3.1742e-09 -3.78193e-09 -4.76431e-09 5.53834e-09 -2.2475e-09 -2.73324e-09 3.17418e-09 7.73091 5.47488 0.417314 -2.24751e-09 -2.73323e-09 3.17419e-09 2.90554 0.965183 0.102902 -2.2475e-09 -2.73323e-09 3.17419e-09 10.2786 0.731801 0.0259123 -2.24751e-09 -2.73323e-09 3.1742e-09 2.22167 -0.733487 -0.20892 -1.45018e-13 -1.17177e-14 2.71779e-13 -78.8778 17.4552 -8.54588 9.94971 -4.11316 -17.7038 0.995722 27.1423 -4.13074 1.85239e-09 -8.9652e-10 -1.02098e-09 3.17887e-09 -1.5519e-09 -1.80618e-09 1.85239e-09 -8.96523e-10 -1.02098e-09 -7.73091 5.47488 -0.417314 1.85239e-09 -8.96522e-10 -1.02098e-09 -2.90554 0.965183 -0.102902 1.85238e-09 -8.96521e-10 -1.02098e-09 -10.2786 0.731801 -0.0259123 1.85239e-09 -8.96518e-10 -1.02099e-09 -2.22167 -0.733487 0.20892 -2.03217e-16 0.0 -3.88251e-19 -3.51732 -38.5367 6.31894 -0.197228 30.5913 0.886121 1.01975 -6.71202 6.75931 2.03217e-16 0.0 3.88251e-19 -5.70337 -16.9032 3.66624 -0.171104 26.1903 -1.12708 -0.0649694 -4.09287 -21.1416
71.5466 82.6949 48.0334 -175.565 -60.7277 -175.46 -8.89724 -5.73574 -6.46611 2.24918 6.48671 -1.85938 -5.63761 16.128 1.28659 11.9955 -34.7011 6.27397 -0.0 0.0 0.0 -0.0 0.0 0.0 -1.51884e-13 4.98898e-14 7.72907e-13 80.5402 -5.40879 -6.02025 -11.1188 -4.84973 19.9168 -2.09801 37.4617 6.18221 -3.68665e-09 -1.5316e-09 1.95184e-09 -6.29246e-09 -2.68481e-09 3.47213e-09 -3.68664e-09 -1.53161e-09 1.95183e-09 7.73091 5.47488 0.417314 -3.68665e-09 -1.53161e-09 1.95184e-09 2.90554 0.965183 0.102902 -3.68664e-09 -1.53161e-09 1.95184e-09 10.2786 0.731801 0.0259123 -3.68666e-09 -1.5316e-09 1.95185e-09 2.22167 -0.733487 -0.20892 -1.52127e-13 4.98895e-14 7.7265e-13 -78.9908 18.2896 -8.37641 10.1723 -4.24827 -18.1226 0.936407 26.3888 -3.99789 -8.78835e-10 -2.57047e-09 -1.94059e-09 -1.55024e-09 -4.4501e-09 -3.33248e-09 -8.78837e-10 -2.57047e-09 -1.94058e-09 -7.73091 5.47488 -0.417314 -8.78835e-10 -2.57047e-09 -1.94059e-09 -2.90554 0.965183 -0.102902 -8.7884e-10 -2.57047e-09 -1.94059e-09 -10.2786 0.731801 -0.0259123 -8.78833e-10 -2.57046e-09 -1.94059e-09 -2.22167 -0.733487 0.20892 -2.03217e-16 0.0 -3.88251e-19 -3.25809 -38.266 6.51097 -0.171011 27.7074 0.872733 1.61046 -5.67921 10.1001 2.03217e-16 0.0 3.88251e-19 -5.49728 -15.7171 3.01344 -0.148648 25.1598 -1.16253 0.115468 -3.80175 -21.1972
70.6699 82.7277 47.4015 -175.323 -61.7362 -175.668 -8.65864 -5.74416 -6.76777 2.37037 6.45995 -1.95177 -5.69875 16.1448 1.33704 12.1082 -34.8137 6.42277 -0.0 0.0 0.0 -0.0 0.0 0.0 -1.419e-13 8.45809e-14 1.0052e-12 80.3971 -5.59496 -6.04519 -11.0696 -4.81719 19.8232 -2.11377 37.5763 6.20801 -4.18632e-09 -6.49879e-10 1.02538e-09 -7.17757e-09 -1.15481e-09 1.88912e-09 -4.18631e-09 -6.4988e-10 1.02537e-09 7.73091 5.47488 0.417314 -4.18632e-09 -6.49885e-10 1.02537e-09 2.90554 0.965183 0.102902 -4.18631e-09 -6.4988e-10 1.02537e-09 10.2786 0.731801 0.0259123 -4.18633e-09 -6.49877e-10 1.02538e-09 2.22167 -0.733487 -0.20892 -1.42172e-13 8.45835e-14 1.00496e-12 -79.0969 18.9062 -8.30654 10.3072 -4.33016 -18.3789 0.899844 25.8961 -3.9124 -2.47454e-09 -3.34341e-09 -2.29568e-09 -4.31004e-09 -5.78829e-09 -3.90956e-09 -2.47454e-09 -3.34341e-09 -2.29568e-09 -7.73091 5.47488 -0.417314 -2.47454e-09 -3.3434e-09 -2.29568e-09 -2.90554 0.965183 -0.102902 -2.47454e-09 -3.3434e-09 -2.29568e-09 -10.2786 0.731801 -0.0259123 -2.47453e-09 -3.3434e-09 -2.29569e-09 -2.22167 -0.733487 0.20892 -2.03217e-16 0.0 -3.88251e-19 -3.15035 -37.9487 6.3 -0.151263 25.4413 0.872125 1.93744 -4.5351 12.815 2.03217e-16 0.0 3.88251e-19 -5.38595 -14.5712 2.27319 -0.130871 24.2971 -1.18929 0.29651 -3.49525 -21.2253
